<?xml version="1.0" encoding="UTF-8" standalone="no"?>
<!DOCTYPE svg PUBLIC "-//W3C//DTD SVG 1.1//EN"
 "http://www.w3.org/Graphics/SVG/1.1/DTD/svg11.dtd">
<!-- Generated by graphviz version 2.42.4 (0)
 -->
<!-- Title: structs Pages: 1 -->
<svg width="277pt" height="255pt"
 viewBox="0.00 0.00 277.00 255.00" xmlns="http://www.w3.org/2000/svg" xmlns:xlink="http://www.w3.org/1999/xlink">
<g id="graph0" class="graph" transform="scale(1 1) rotate(0) translate(4 251)">
<title>structs</title>
<polygon fill="white" stroke="transparent" points="-4,4 -4,-251 273,-251 273,4 -4,4"/>
<text text-anchor="middle" x="134.5" y="-231.8" font-family="Times New Roman" font-size="14.00">An injection of a hidden blob into a .zip file</text>
<!-- z -->
<g id="node1" class="node">
<title>z</title>
<polygon fill="none" stroke="black" points="101.5,-201 101.5,-220 249.5,-220 249.5,-201 101.5,-201"/>
<text text-anchor="start" x="159.5" y="-207.4" font-family="InconsolataN" font-size="12.00">file 1</text>
<polygon fill="none" stroke="black" points="101.5,-182 101.5,-201 249.5,-201 249.5,-182 101.5,-182"/>
<text text-anchor="start" x="159.5" y="-188.4" font-family="InconsolataN" font-size="12.00">file 2</text>
<polygon fill="none" stroke="black" points="101.5,-163 101.5,-182 249.5,-182 249.5,-163 101.5,-163"/>
<text text-anchor="start" x="167.5" y="-169.4" font-family="InconsolataN" font-size="12.00">...</text>
<polygon fill="none" stroke="black" points="101.5,-144 101.5,-163 249.5,-163 249.5,-144 101.5,-144"/>
<text text-anchor="start" x="159.5" y="-150.4" font-family="InconsolataN" font-size="12.00">file n</text>
<polygon fill="yellow" stroke="transparent" points="101.5,-99 101.5,-144 201.5,-144 201.5,-99 101.5,-99"/>
<polygon fill="none" stroke="black" points="101.5,-99 101.5,-144 201.5,-144 201.5,-99 101.5,-99"/>
<text text-anchor="start" x="136" y="-117.7" font-family="InconsolataN" font-size="16.00">Blob</text>
<polygon fill="gold" stroke="transparent" points="201.5,-129 201.5,-144 249.5,-144 249.5,-129 201.5,-129"/>
<polygon fill="none" stroke="black" points="201.5,-129 201.5,-144 249.5,-144 249.5,-129 201.5,-129"/>
<text text-anchor="start" x="219.5" y="-134.6" font-family="InconsolataN" font-size="8.00">len</text>
<polygon fill="gold" stroke="transparent" points="201.5,-114 201.5,-129 249.5,-129 249.5,-114 201.5,-114"/>
<polygon fill="none" stroke="black" points="201.5,-114 201.5,-129 249.5,-129 249.5,-114 201.5,-114"/>
<text text-anchor="start" x="210" y="-119.6" font-family="InconsolataN" font-size="8.00">checksum</text>
<polygon fill="gold" stroke="transparent" points="201.5,-99 201.5,-114 249.5,-114 249.5,-99 201.5,-99"/>
<polygon fill="none" stroke="black" points="201.5,-99 201.5,-114 249.5,-114 249.5,-99 201.5,-99"/>
<text text-anchor="start" x="212" y="-104.6" font-family="InconsolataN" font-size="8.00">version</text>
<polygon fill="none" stroke="black" points="101.5,-80 101.5,-99 249.5,-99 249.5,-80 101.5,-80"/>
<text text-anchor="start" x="104.5" y="-86.4" font-family="InconsolataN" font-size="12.00">central directory header 1 </text>
<polygon fill="none" stroke="black" points="101.5,-61 101.5,-80 249.5,-80 249.5,-61 101.5,-61"/>
<text text-anchor="start" x="104.5" y="-67.4" font-family="InconsolataN" font-size="12.00">central directory header 2 </text>
<polygon fill="none" stroke="black" points="101.5,-42 101.5,-61 249.5,-61 249.5,-42 101.5,-42"/>
<text text-anchor="start" x="167.5" y="-48.4" font-family="InconsolataN" font-size="12.00">...</text>
<polygon fill="none" stroke="black" points="101.5,-23 101.5,-42 249.5,-42 249.5,-23 101.5,-23"/>
<text text-anchor="start" x="104.5" y="-29.4" font-family="InconsolataN" font-size="12.00">central directory header n </text>
<polygon fill="#f2f2f2" stroke="transparent" points="101.5,-4 101.5,-23 249.5,-23 249.5,-4 101.5,-4"/>
<polygon fill="none" stroke="black" points="101.5,-4 101.5,-23 249.5,-23 249.5,-4 101.5,-4"/>
<text text-anchor="start" x="112" y="-10.4" font-family="InconsolataN" font-size="12.00">end of central directory</text>
</g>
<!-- z&#45;&gt;z -->
<g id="edge1" class="edge">
<title>z:eocd&#45;&gt;z:c1</title>
<path fill="none" stroke="black" d="M101.29,-8.61C55.28,-10.34 11.5,-21.26 11.5,-51 11.5,-78.53 49.02,-89.94 91.1,-92.85"/>
<polygon fill="black" stroke="black" points="91.12,-96.36 101.29,-93.39 91.49,-89.37 91.12,-96.36"/>
</g>
</g>
</svg>
